<mxfile host="app.diagrams.net" agent="Mozilla/5.0 (Windows NT 10.0; Win64; x64) AppleWebKit/537.36 (KHTML, like Gecko) Chrome/128.0.0.0 Safari/537.36" version="24.7.16">
  <diagram name="Page-1" id="jextrCOaqQYQHxEUl7Sc">
    <mxGraphModel dx="1434" dy="728" grid="1" gridSize="10" guides="1" tooltips="1" connect="1" arrows="1" fold="1" page="1" pageScale="1" pageWidth="850" pageHeight="1100" math="0" shadow="0">
      <root>
        <mxCell id="0" />
        <mxCell id="1" parent="0" />
        <mxCell id="-X2bNLoIt7OfsBO-eCZc-2" value="" style="ellipse;html=1;shape=startState;fillColor=#000000;strokeColor=#ff0000;" vertex="1" parent="1">
          <mxGeometry x="390" y="70" width="30" height="30" as="geometry" />
        </mxCell>
        <mxCell id="-X2bNLoIt7OfsBO-eCZc-3" value="" style="edgeStyle=orthogonalEdgeStyle;html=1;verticalAlign=bottom;endArrow=open;endSize=8;strokeColor=#ff0000;rounded=0;" edge="1" source="-X2bNLoIt7OfsBO-eCZc-2" parent="1">
          <mxGeometry relative="1" as="geometry">
            <mxPoint x="405" y="160" as="targetPoint" />
          </mxGeometry>
        </mxCell>
        <mxCell id="-X2bNLoIt7OfsBO-eCZc-6" value="Register/Login" style="rounded=1;whiteSpace=wrap;html=1;arcSize=40;fontColor=#000000;fillColor=#ffffc0;strokeColor=#ff0000;" vertex="1" parent="1">
          <mxGeometry x="350" y="160" width="120" height="40" as="geometry" />
        </mxCell>
        <mxCell id="-X2bNLoIt7OfsBO-eCZc-7" value="" style="edgeStyle=orthogonalEdgeStyle;html=1;verticalAlign=bottom;endArrow=open;endSize=8;strokeColor=#ff0000;rounded=0;" edge="1" source="-X2bNLoIt7OfsBO-eCZc-6" parent="1">
          <mxGeometry relative="1" as="geometry">
            <mxPoint x="410" y="260" as="targetPoint" />
          </mxGeometry>
        </mxCell>
        <mxCell id="-X2bNLoIt7OfsBO-eCZc-8" value="Search Carpools" style="rounded=1;whiteSpace=wrap;html=1;arcSize=40;fontColor=#000000;fillColor=#ffffc0;strokeColor=#ff0000;" vertex="1" parent="1">
          <mxGeometry x="350" y="260" width="120" height="40" as="geometry" />
        </mxCell>
        <mxCell id="-X2bNLoIt7OfsBO-eCZc-9" value="" style="edgeStyle=orthogonalEdgeStyle;html=1;verticalAlign=bottom;endArrow=open;endSize=8;strokeColor=#ff0000;rounded=0;" edge="1" source="-X2bNLoIt7OfsBO-eCZc-8" parent="1">
          <mxGeometry relative="1" as="geometry">
            <mxPoint x="410" y="360" as="targetPoint" />
          </mxGeometry>
        </mxCell>
        <mxCell id="-X2bNLoIt7OfsBO-eCZc-10" value="Matches" style="rhombus;whiteSpace=wrap;html=1;fontColor=#000000;fillColor=#ffffc0;strokeColor=#ff0000;" vertex="1" parent="1">
          <mxGeometry x="370" y="360" width="80" height="40" as="geometry" />
        </mxCell>
        <mxCell id="-X2bNLoIt7OfsBO-eCZc-11" value="no" style="edgeStyle=orthogonalEdgeStyle;html=1;align=left;verticalAlign=bottom;endArrow=open;endSize=8;strokeColor=#ff0000;rounded=0;" edge="1" source="-X2bNLoIt7OfsBO-eCZc-15" parent="1">
          <mxGeometry x="-1" relative="1" as="geometry">
            <mxPoint x="670" y="560" as="targetPoint" />
          </mxGeometry>
        </mxCell>
        <mxCell id="-X2bNLoIt7OfsBO-eCZc-12" value="yes" style="edgeStyle=orthogonalEdgeStyle;html=1;align=left;verticalAlign=top;endArrow=open;endSize=8;strokeColor=#ff0000;rounded=0;" edge="1" source="-X2bNLoIt7OfsBO-eCZc-10" parent="1">
          <mxGeometry x="-1" relative="1" as="geometry">
            <mxPoint x="410" y="460" as="targetPoint" />
          </mxGeometry>
        </mxCell>
        <mxCell id="-X2bNLoIt7OfsBO-eCZc-13" value="Select &amp;amp; Confirm" style="rounded=1;whiteSpace=wrap;html=1;arcSize=40;fontColor=#000000;fillColor=#ffffc0;strokeColor=#ff0000;" vertex="1" parent="1">
          <mxGeometry x="350" y="460" width="120" height="40" as="geometry" />
        </mxCell>
        <mxCell id="-X2bNLoIt7OfsBO-eCZc-14" value="" style="edgeStyle=orthogonalEdgeStyle;html=1;verticalAlign=bottom;endArrow=open;endSize=8;strokeColor=#ff0000;rounded=0;" edge="1" source="-X2bNLoIt7OfsBO-eCZc-13" parent="1">
          <mxGeometry relative="1" as="geometry">
            <mxPoint x="410" y="560" as="targetPoint" />
          </mxGeometry>
        </mxCell>
        <mxCell id="-X2bNLoIt7OfsBO-eCZc-17" value="" style="edgeStyle=orthogonalEdgeStyle;html=1;align=left;verticalAlign=bottom;endArrow=open;endSize=8;strokeColor=#ff0000;rounded=0;" edge="1" parent="1" source="-X2bNLoIt7OfsBO-eCZc-10" target="-X2bNLoIt7OfsBO-eCZc-15">
          <mxGeometry x="-1" relative="1" as="geometry">
            <mxPoint x="670" y="560" as="targetPoint" />
            <mxPoint x="450" y="380" as="sourcePoint" />
          </mxGeometry>
        </mxCell>
        <mxCell id="-X2bNLoIt7OfsBO-eCZc-15" value="Suggest New Carpool" style="rounded=1;whiteSpace=wrap;html=1;arcSize=40;fontColor=#000000;fillColor=#ffffc0;strokeColor=#ff0000;" vertex="1" parent="1">
          <mxGeometry x="610" y="460" width="120" height="40" as="geometry" />
        </mxCell>
        <mxCell id="-X2bNLoIt7OfsBO-eCZc-18" value="Create" style="rhombus;whiteSpace=wrap;html=1;fontColor=#000000;fillColor=#ffffc0;strokeColor=#ff0000;" vertex="1" parent="1">
          <mxGeometry x="630" y="560" width="80" height="40" as="geometry" />
        </mxCell>
        <mxCell id="-X2bNLoIt7OfsBO-eCZc-19" value="no" style="edgeStyle=orthogonalEdgeStyle;html=1;align=left;verticalAlign=bottom;endArrow=open;endSize=8;strokeColor=#ff0000;rounded=0;entryX=0.838;entryY=0.275;entryDx=0;entryDy=0;entryPerimeter=0;" edge="1" source="-X2bNLoIt7OfsBO-eCZc-18" parent="1" target="-X2bNLoIt7OfsBO-eCZc-23">
          <mxGeometry x="-1" relative="1" as="geometry">
            <mxPoint x="740" y="760" as="targetPoint" />
          </mxGeometry>
        </mxCell>
        <mxCell id="-X2bNLoIt7OfsBO-eCZc-20" value="yes" style="edgeStyle=orthogonalEdgeStyle;html=1;align=left;verticalAlign=top;endArrow=open;endSize=8;strokeColor=#ff0000;rounded=0;" edge="1" source="-X2bNLoIt7OfsBO-eCZc-18" parent="1">
          <mxGeometry x="-1" relative="1" as="geometry">
            <mxPoint x="670" y="660" as="targetPoint" />
          </mxGeometry>
        </mxCell>
        <mxCell id="-X2bNLoIt7OfsBO-eCZc-21" value="Enter details" style="rounded=1;whiteSpace=wrap;html=1;arcSize=40;fontColor=#000000;fillColor=#ffffc0;strokeColor=#ff0000;" vertex="1" parent="1">
          <mxGeometry x="610" y="660" width="120" height="40" as="geometry" />
        </mxCell>
        <mxCell id="-X2bNLoIt7OfsBO-eCZc-22" value="" style="edgeStyle=orthogonalEdgeStyle;html=1;verticalAlign=bottom;endArrow=open;endSize=8;strokeColor=#ff0000;rounded=0;" edge="1" source="-X2bNLoIt7OfsBO-eCZc-21" parent="1">
          <mxGeometry relative="1" as="geometry">
            <mxPoint x="670" y="760" as="targetPoint" />
          </mxGeometry>
        </mxCell>
        <mxCell id="-X2bNLoIt7OfsBO-eCZc-23" value="After enteringf" style="rhombus;whiteSpace=wrap;html=1;fontColor=#000000;fillColor=#ffffc0;strokeColor=#ff0000;" vertex="1" parent="1">
          <mxGeometry x="650" y="750" width="100" height="40" as="geometry" />
        </mxCell>
        <mxCell id="-X2bNLoIt7OfsBO-eCZc-25" value="yes" style="edgeStyle=orthogonalEdgeStyle;html=1;align=left;verticalAlign=top;endArrow=open;endSize=8;strokeColor=#ff0000;rounded=0;" edge="1" source="-X2bNLoIt7OfsBO-eCZc-23" parent="1">
          <mxGeometry x="-1" relative="1" as="geometry">
            <mxPoint x="230" y="949" as="targetPoint" />
            <Array as="points">
              <mxPoint x="700" y="820" />
              <mxPoint x="701" y="820" />
              <mxPoint x="701" y="840" />
            </Array>
          </mxGeometry>
        </mxCell>
        <mxCell id="-X2bNLoIt7OfsBO-eCZc-26" value="Request and accept" style="rounded=1;whiteSpace=wrap;html=1;arcSize=40;fontColor=#000000;fillColor=#ffffc0;strokeColor=#ff0000;" vertex="1" parent="1">
          <mxGeometry x="350" y="560" width="120" height="40" as="geometry" />
        </mxCell>
        <mxCell id="-X2bNLoIt7OfsBO-eCZc-27" value="" style="edgeStyle=orthogonalEdgeStyle;html=1;verticalAlign=bottom;endArrow=open;endSize=8;strokeColor=#ff0000;rounded=0;" edge="1" source="-X2bNLoIt7OfsBO-eCZc-26" parent="1">
          <mxGeometry relative="1" as="geometry">
            <mxPoint x="410" y="660" as="targetPoint" />
          </mxGeometry>
        </mxCell>
        <mxCell id="-X2bNLoIt7OfsBO-eCZc-28" value="accept" style="rhombus;whiteSpace=wrap;html=1;fontColor=#000000;fillColor=#ffffc0;strokeColor=#ff0000;" vertex="1" parent="1">
          <mxGeometry x="370" y="660" width="80" height="40" as="geometry" />
        </mxCell>
        <mxCell id="-X2bNLoIt7OfsBO-eCZc-29" value="no" style="edgeStyle=orthogonalEdgeStyle;html=1;align=left;verticalAlign=bottom;endArrow=open;endSize=8;strokeColor=#ff0000;rounded=0;" edge="1" source="-X2bNLoIt7OfsBO-eCZc-28" parent="1">
          <mxGeometry x="-1" relative="1" as="geometry">
            <mxPoint x="550" y="730" as="targetPoint" />
          </mxGeometry>
        </mxCell>
        <mxCell id="-X2bNLoIt7OfsBO-eCZc-30" value="yes" style="edgeStyle=orthogonalEdgeStyle;html=1;align=left;verticalAlign=top;endArrow=open;endSize=8;strokeColor=#ff0000;rounded=0;" edge="1" source="-X2bNLoIt7OfsBO-eCZc-28" parent="1">
          <mxGeometry x="-1" relative="1" as="geometry">
            <mxPoint x="180" y="750" as="targetPoint" />
          </mxGeometry>
        </mxCell>
        <mxCell id="-X2bNLoIt7OfsBO-eCZc-31" value="Ride and complete" style="rounded=1;whiteSpace=wrap;html=1;arcSize=40;fontColor=#000000;fillColor=#ffffc0;strokeColor=#ff0000;" vertex="1" parent="1">
          <mxGeometry x="130" y="750" width="120" height="40" as="geometry" />
        </mxCell>
        <mxCell id="-X2bNLoIt7OfsBO-eCZc-33" value="Ride and complete" style="rounded=1;whiteSpace=wrap;html=1;arcSize=40;fontColor=#000000;fillColor=#ffffc0;strokeColor=#ff0000;" vertex="1" parent="1">
          <mxGeometry x="130" y="750" width="120" height="40" as="geometry" />
        </mxCell>
        <mxCell id="-X2bNLoIt7OfsBO-eCZc-34" value="" style="edgeStyle=orthogonalEdgeStyle;html=1;verticalAlign=bottom;endArrow=open;endSize=8;strokeColor=#ff0000;rounded=0;" edge="1" source="-X2bNLoIt7OfsBO-eCZc-33" parent="1">
          <mxGeometry relative="1" as="geometry">
            <mxPoint x="190" y="950" as="targetPoint" />
          </mxGeometry>
        </mxCell>
        <mxCell id="-X2bNLoIt7OfsBO-eCZc-35" value="Notify decline" style="rounded=1;whiteSpace=wrap;html=1;arcSize=40;fontColor=#000000;fillColor=#ffffc0;strokeColor=#ff0000;" vertex="1" parent="1">
          <mxGeometry x="490" y="730" width="120" height="40" as="geometry" />
        </mxCell>
        <mxCell id="-X2bNLoIt7OfsBO-eCZc-37" value="Log Activity" style="rounded=1;whiteSpace=wrap;html=1;arcSize=40;fontColor=#000000;fillColor=#ffffc0;strokeColor=#ff0000;" vertex="1" parent="1">
          <mxGeometry x="160" y="950" width="120" height="40" as="geometry" />
        </mxCell>
        <mxCell id="-X2bNLoIt7OfsBO-eCZc-38" value="" style="edgeStyle=orthogonalEdgeStyle;html=1;verticalAlign=bottom;endArrow=open;endSize=8;strokeColor=#ff0000;rounded=0;" edge="1" source="-X2bNLoIt7OfsBO-eCZc-37" parent="1">
          <mxGeometry relative="1" as="geometry">
            <mxPoint x="220" y="1050" as="targetPoint" />
          </mxGeometry>
        </mxCell>
        <mxCell id="-X2bNLoIt7OfsBO-eCZc-39" value="" style="ellipse;html=1;shape=endState;fillColor=#000000;strokeColor=#ff0000;" vertex="1" parent="1">
          <mxGeometry x="205" y="1050" width="30" height="30" as="geometry" />
        </mxCell>
      </root>
    </mxGraphModel>
  </diagram>
</mxfile>
